{
	"asset":{
		"version":"2.0",
		"generator":"Created using the official Cinema 4D glTF Exporter 1.000x290161"
	},
	"scenes":[{
		"nodes":[0,
		11]
	}],
	"nodes":[{
		"name":"dz",
		"children":[1,
		3,
		4,
		5,
		6,
		8,
		9]
	},
	{
		"name":"x",
		"children":[2]
	},
	{
		"name":"m",
		"mesh":0
	},
	{
		"name":"m1",
		"translation":[0,
		0,
		0],
		"rotation":[1,
		0,
		0,
		0],
		"scale":[1,
		1,
		1],
		"mesh":1
	},
	{
		"name":"m",
		"translation":[0,
		0,
		0],
		"rotation":[1,
		0,
		0,
		0],
		"scale":[1,
		1,
		1],
		"mesh":2
	},
	{
		"name":"m.1",
		"translation":[0,
		0,
		0],
		"rotation":[1,
		0,
		0,
		0],
		"scale":[1,
		1,
		1],
		"mesh":3
	},
	{
		"name":"x2",
		"children":[7]
	},
	{
		"name":"m",
		"mesh":4
	},
	{
		"name":"m2",
		"translation":[0,
		-70.312,
		0],
		"rotation":[1,
		0,
		0,
		0],
		"scale":[1,
		1,
		1],
		"mesh":5
	},
	{
		"name":"x",
		"children":[10],
		"translation":[0,
		-94.646,
		0],
		"rotation":[0,
		0,
		0,
		-1],
		"scale":[1,
		1,
		1]
	},
	{
		"name":"m",
		"mesh":6
	},
	{
		"name":"dz",
		"children":[12]
	},
	{
		"name":"m",
		"translation":[0,
		0,
		0],
		"rotation":[1,
		0,
		0,
		0],
		"scale":[1,
		1,
		1],
		"mesh":7
	}],
	"meshes":[{
		"primitives":[{
			"attributes":{
				"POSITION":1,
				"NORMAL":2,
				"TEXCOORD_0":3
			},
			"indices":0,
			"material":0
		}]
	},
	{
		"primitives":[{
			"attributes":{
				"POSITION":5,
				"NORMAL":6,
				"TEXCOORD_0":7
			},
			"indices":4,
			"material":0
		}]
	},
	{
		"primitives":[{
			"attributes":{
				"POSITION":9,
				"NORMAL":10,
				"TEXCOORD_0":11
			},
			"indices":8,
			"material":1
		}]
	},
	{
		"primitives":[{
			"attributes":{
				"POSITION":13,
				"NORMAL":14,
				"TEXCOORD_0":15
			},
			"indices":12,
			"material":1
		}]
	},
	{
		"primitives":[{
			"attributes":{
				"POSITION":17,
				"NORMAL":18,
				"TEXCOORD_0":19
			},
			"indices":16,
			"material":0
		}]
	},
	{
		"primitives":[{
			"attributes":{
				"POSITION":21,
				"NORMAL":22,
				"TEXCOORD_0":23
			},
			"indices":20,
			"material":0
		}]
	},
	{
		"primitives":[{
			"attributes":{
				"POSITION":25,
				"NORMAL":26,
				"TEXCOORD_0":27
			},
			"indices":24,
			"material":0
		}]
	},
	{
		"primitives":[{
			"attributes":{
				"POSITION":29,
				"NORMAL":30,
				"TEXCOORD_0":31
			},
			"indices":28,
			"material":1
		}]
	}],
	"accessors":[{
		"bufferView":0,
		"type":"SCALAR",
		"componentType":5123,
		"count":1104,
		"byteOffset":0,
		"min":[0],
		"max":[358]
	},
	{
		"bufferView":1,
		"type":"VEC3",
		"componentType":5126,
		"count":359,
		"byteOffset":0,
		"min":[-102,
		-265.138,
		-102],
		"max":[102,
		102,
		102]
	},
	{
		"bufferView":1,
		"type":"VEC3",
		"componentType":5126,
		"count":359,
		"byteOffset":12,
		"min":[-1,
		-1,
		-1],
		"max":[1,
		1,
		1]
	},
	{
		"bufferView":1,
		"type":"VEC2",
		"componentType":5126,
		"count":359,
		"byteOffset":24,
		"min":[0,
		0],
		"max":[1,
		1]
	},
	{
		"bufferView":2,
		"type":"SCALAR",
		"componentType":5123,
		"count":6,
		"byteOffset":0,
		"min":[0],
		"max":[3]
	},
	{
		"bufferView":3,
		"type":"VEC3",
		"componentType":5126,
		"count":4,
		"byteOffset":0,
		"min":[-100,
		-100,
		-100],
		"max":[100,
		-100,
		100]
	},
	{
		"bufferView":3,
		"type":"VEC3",
		"componentType":5126,
		"count":4,
		"byteOffset":12,
		"min":[0,
		-1,
		0],
		"max":[0,
		-1,
		0]
	},
	{
		"bufferView":3,
		"type":"VEC2",
		"componentType":5126,
		"count":4,
		"byteOffset":24,
		"min":[0.2,
		0.2],
		"max":[0.8,
		0.8]
	},
	{
		"bufferView":4,
		"type":"SCALAR",
		"componentType":5123,
		"count":18,
		"byteOffset":0,
		"min":[0],
		"max":[15]
	},
	{
		"bufferView":5,
		"type":"VEC3",
		"componentType":5126,
		"count":16,
		"byteOffset":0,
		"min":[-100,
		-100,
		-100],
		"max":[100,
		263.138,
		100]
	},
	{
		"bufferView":5,
		"type":"VEC3",
		"componentType":5126,
		"count":16,
		"byteOffset":12,
		"min":[-0.964,
		-1,
		-0.964],
		"max":[0.964,
		0.265,
		0.964]
	},
	{
		"bufferView":5,
		"type":"VEC2",
		"componentType":5126,
		"count":16,
		"byteOffset":24,
		"min":[0,
		0],
		"max":[1,
		1]
	},
	{
		"bufferView":6,
		"type":"SCALAR",
		"componentType":5123,
		"count":18,
		"byteOffset":0,
		"min":[0],
		"max":[15]
	},
	{
		"bufferView":7,
		"type":"VEC3",
		"componentType":5126,
		"count":16,
		"byteOffset":0,
		"min":[-100,
		-100,
		-100],
		"max":[100,
		263.138,
		100]
	},
	{
		"bufferView":7,
		"type":"VEC3",
		"componentType":5126,
		"count":16,
		"byteOffset":12,
		"min":[-0.964,
		-1,
		-0.964],
		"max":[0.964,
		0.265,
		0.964]
	},
	{
		"bufferView":7,
		"type":"VEC2",
		"componentType":5126,
		"count":16,
		"byteOffset":24,
		"min":[0,
		0],
		"max":[1,
		1]
	},
	{
		"bufferView":8,
		"type":"SCALAR",
		"componentType":5123,
		"count":768,
		"byteOffset":0,
		"min":[0],
		"max":[243]
	},
	{
		"bufferView":9,
		"type":"VEC3",
		"componentType":5126,
		"count":244,
		"byteOffset":0,
		"min":[-70.105,
		-6.808,
		-70.105],
		"max":[70.105,
		-2.668,
		70.105]
	},
	{
		"bufferView":9,
		"type":"VEC3",
		"componentType":5126,
		"count":244,
		"byteOffset":12,
		"min":[-1,
		-1,
		-1],
		"max":[1,
		1,
		1]
	},
	{
		"bufferView":9,
		"type":"VEC2",
		"componentType":5126,
		"count":244,
		"byteOffset":24,
		"min":[0,
		0],
		"max":[1,
		1]
	},
	{
		"bufferView":10,
		"type":"SCALAR",
		"componentType":5123,
		"count":6,
		"byteOffset":0,
		"min":[0],
		"max":[3]
	},
	{
		"bufferView":11,
		"type":"VEC3",
		"componentType":5126,
		"count":4,
		"byteOffset":0,
		"min":[-65.734,
		-65.734,
		-65.734],
		"max":[65.734,
		-65.734,
		65.734]
	},
	{
		"bufferView":11,
		"type":"VEC3",
		"componentType":5126,
		"count":4,
		"byteOffset":12,
		"min":[0,
		-1,
		0],
		"max":[0,
		-1,
		0]
	},
	{
		"bufferView":11,
		"type":"VEC2",
		"componentType":5126,
		"count":4,
		"byteOffset":24,
		"min":[0.2,
		0.2],
		"max":[0.8,
		0.8]
	},
	{
		"bufferView":12,
		"type":"SCALAR",
		"componentType":5123,
		"count":768,
		"byteOffset":0,
		"min":[0],
		"max":[243]
	},
	{
		"bufferView":13,
		"type":"VEC3",
		"componentType":5126,
		"count":244,
		"byteOffset":0,
		"min":[-45.54,
		-5.103,
		-45.54],
		"max":[45.54,
		-0.951,
		45.54]
	},
	{
		"bufferView":13,
		"type":"VEC3",
		"componentType":5126,
		"count":244,
		"byteOffset":12,
		"min":[-1,
		-1,
		-1],
		"max":[1,
		1,
		1]
	},
	{
		"bufferView":13,
		"type":"VEC2",
		"componentType":5126,
		"count":244,
		"byteOffset":24,
		"min":[0,
		0],
		"max":[1,
		1]
	},
	{
		"bufferView":14,
		"type":"SCALAR",
		"componentType":5123,
		"count":18,
		"byteOffset":0,
		"min":[0],
		"max":[15]
	},
	{
		"bufferView":15,
		"type":"VEC3",
		"componentType":5126,
		"count":16,
		"byteOffset":0,
		"min":[-100,
		-100,
		-100],
		"max":[100,
		263.138,
		100]
	},
	{
		"bufferView":15,
		"type":"VEC3",
		"componentType":5126,
		"count":16,
		"byteOffset":12,
		"min":[-0.964,
		-1,
		-0.964],
		"max":[0.964,
		0.265,
		0.964]
	},
	{
		"bufferView":15,
		"type":"VEC2",
		"componentType":5126,
		"count":16,
		"byteOffset":24,
		"min":[0,
		0],
		"max":[1,
		1]
	}],
	"bufferViews":[{
		"buffer":0,
		"byteOffset":0,
		"byteLength":2208,
		"target":34963
	},
	{
		"buffer":0,
		"byteOffset":2208,
		"byteLength":11488,
		"target":34962,
		"byteStride":32
	},
	{
		"buffer":1,
		"byteOffset":0,
		"byteLength":12,
		"target":34963
	},
	{
		"buffer":1,
		"byteOffset":12,
		"byteLength":128,
		"target":34962,
		"byteStride":32
	},
	{
		"buffer":2,
		"byteOffset":0,
		"byteLength":36,
		"target":34963
	},
	{
		"buffer":2,
		"byteOffset":36,
		"byteLength":512,
		"target":34962,
		"byteStride":32
	},
	{
		"buffer":3,
		"byteOffset":0,
		"byteLength":36,
		"target":34963
	},
	{
		"buffer":3,
		"byteOffset":36,
		"byteLength":512,
		"target":34962,
		"byteStride":32
	},
	{
		"buffer":4,
		"byteOffset":0,
		"byteLength":1536,
		"target":34963
	},
	{
		"buffer":4,
		"byteOffset":1536,
		"byteLength":7808,
		"target":34962,
		"byteStride":32
	},
	{
		"buffer":5,
		"byteOffset":0,
		"byteLength":12,
		"target":34963
	},
	{
		"buffer":5,
		"byteOffset":12,
		"byteLength":128,
		"target":34962,
		"byteStride":32
	},
	{
		"buffer":6,
		"byteOffset":0,
		"byteLength":1536,
		"target":34963
	},
	{
		"buffer":6,
		"byteOffset":1536,
		"byteLength":7808,
		"target":34962,
		"byteStride":32
	},
	{
		"buffer":7,
		"byteOffset":0,
		"byteLength":36,
		"target":34963
	},
	{
		"buffer":7,
		"byteOffset":36,
		"byteLength":512,
		"target":34962,
		"byteStride":32
	}],
	"buffers":[{
		"uri":"data:application/octet-stream;base64,",
		"byteLength":13696
	},
	{
		"uri":"data:application/octet-stream;base64,",
		"byteLength":140
	},
	{
		"uri":"data:application/octet-stream;base64,",
		"byteLength":548
	},
	{
		"uri":"data:application/octet-stream;base64,",
		"byteLength":548
	},
	{
		"uri":"data:application/octet-stream;base64,",
		"byteLength":9344
	},
	{
		"uri":"data:application/octet-stream;base64,",
		"byteLength":140
	},
	{
		"uri":"data:application/octet-stream;base64,",
		"byteLength":9344
	},
	{
		"uri":"data:application/octet-stream;base64,",
		"byteLength":548
	}],
	"materials":[{
		"pbrMetallicRoughness":{
			"baseColorFactor":[1,
			0.15,
			0,
			0],
			"metallicFactor":1,
			"roughnessFactor":1
		},
		"emissiveFactor":[0,
		0,
		0],
		"alphaMode":"BLEND",
		"doubleSided":false,
		"name":"cz1"
	},
	{
		"pbrMetallicRoughness":{
			"baseColorFactor":[0.77,
			0.015,
			0.015,
			0],
			"metallicFactor":1,
			"roughnessFactor":1
		},
		"emissiveFactor":[0,
		0,
		0],
		"alphaMode":"BLEND",
		"doubleSided":false,
		"name":"cz"
	}]
}